:FULLY-SPECIFIED
:FORCE-ALL-JOINTS-BE-3DOF
:DEGREES
102
root 7.07587 16.8388 -27.0796 1.22013 6.99023 -3.04512
lfemur -22.7671 9.29418 -13.9845
ltibia 37.9957 -0 0
lfoot -16.0883 -3.2786 -0.228802
ltoes 26.698 -0 0
rfemur -37.012 -5.75123 14.8466
rtibia 37.1827 -0 0
rfoot -11.1725 -4.58871 2.20645
rtoes -10.5549 0 0
lowerback 5.05707 0.837299 0.842875
upperback 1.23886 1.27399 1.09834
thorax -1.29764 0.589989 0.97179
lowerneck -11.1588 -2.91306 2.27033
upperneck -2.41718 -4.13753 1.22604
head 1.10807 -2.05652 -0.152622
lclavicle -3.65655e-14 1.04532e-14 -4.09875e-31
lhumerus -41.4415 -11.3397 92.0483
lradius 46.4681 -0 0
lwrist 10.3485 0 0
lhand -2.62463 4.53933 0.189601
lfingers 7.12502 -0 0
lthumb 23.0487 32.9039 0.0932998
rclavicle -3.65655e-14 1.04532e-14 -4.09875e-31
rhumerus -38.7994 -0.0395774 -73.9301
rradius 53.0444 -0 0
rwrist 4.68546 0 0
rhand -10.8658 -18.784 0.313783
rfingers 7.12502 -0 0
rthumb 15.1146 -47.706 0.430655
103
root 7.11767 16.8454 -27.0543 0.726571 7.15878 -2.9084
lfemur -21.9585 9.2082 -14.128
ltibia 37.5312 -0 0
lfoot -15.9304 -3.6767 -0.229899
ltoes 27.0323 -0 0
rfemur -38.2656 -6.00631 14.4602
rtibia 37.7096 -0 0
rfoot -10.2784 -3.90257 2.21715
rtoes -10.611 0 0
lowerback 5.49252 0.698092 0.705855
upperback 1.40208 1.08704 1.12572
thorax -1.37061 0.496804 1.08506
lowerneck -11.1962 -2.88244 2.21796
upperneck -2.26784 -4.09465 1.2133
head 1.16419 -2.0332 -0.148695
lclavicle -3.80139e-14 1.03756e-14 -4.11836e-31
lhumerus -41.3728 -11.4886 92.0687
lradius 46.5605 -0 0
lwrist 10.4069 0 0
lhand -2.17933 4.65631 0.19051
lfingers 7.12502 -0 0
lthumb 23.4755 32.964 0.0937471
rclavicle -3.80139e-14 1.03756e-14 -4.11836e-31
rhumerus -38.9007 -0.206247 -73.109
rradius 53.5203 -0 0
rwrist 4.5457 0 0
rhand -10.1972 -18.6547 0.315292
rfingers 7.12502 -0 0
rthumb 15.7581 -47.5216 0.432725
104
root 7.15947 16.8519 -27.0289 0.233239 7.32848 -2.77309
lfemur -21.1498 9.12422 -14.2726
ltibia 37.0666 -0 0
lfoot -15.7726 -4.0748 -0.229899
ltoes 27.3665 -0 0
rfemur -39.518 -6.26973 14.0793
rtibia 38.2364 -0 0
rfoot -9.38418 -3.21633 2.21715
rtoes -10.667 0 0
lowerback 5.92829 0.559932 0.567785
upperback 1.56521 0.900013 1.15256
thorax -1.44378 0.403764 1.19844
lowerneck -11.2337 -2.85186 2.16558
upperneck -2.11852 -4.05174 1.20068
head 1.22031 -2.00988 -0.144746
lclavicle -3.94624e-14 1.0298e-14 -4.11836e-31
lhumerus -41.3042 -11.6374 92.089
lradius 46.6529 -0 0
lwrist 10.4654 0 0
lhand -1.73403 4.77331 0.19051
lfingers 7.12502 -0 0
lthumb 23.9022 33.024 0.0937471
rclavicle -3.94624e-14 1.0298e-14 -4.11836e-31
rhumerus -39.0044 -0.371447 -72.2875
rradius 53.9961 -0 0
rwrist 4.40593 0 0
rhand -9.52869 -18.5254 0.315292
rfingers 7.12502 -0 0
rthumb 16.4015 -47.3373 0.432725
105
root 7.20126 16.8584 -27.0035 -0.25988 7.49933 -2.63922
lfemur -20.3411 9.04227 -14.4185
ltibia 36.6021 -0 0
lfoot -15.6147 -4.4729 -0.228802
ltoes 27.7008 -0 0
rfemur -40.7693 -6.54137 13.7041
rtibia 38.7633 -0 0
rfoot -8.49004 -2.53019 2.20645
rtoes -10.723 0 0
lowerback 6.36439 0.422825 0.428671
upperback 1.72824 0.712909 1.17886
thorax -1.51712 0.310869 1.31194
lowerneck -11.2711 -2.82131 2.11317
upperneck -1.96921 -4.0088 1.18817
head 1.27643 -1.98656 -0.140774
lclavicle -4.09108e-14 1.02205e-14 -4.09875e-31
lhumerus -41.2356 -11.7863 92.1091
lradius 46.7453 -0 0
lwrist 10.5238 0 0
lhand -1.28873 4.89029 0.189601
lfingers 7.12502 -0 0
lthumb 24.329 33.0841 0.0932998
rclavicle -4.09108e-14 1.02205e-14 -4.09875e-31
rhumerus -39.1105 -0.535142 -71.4658
rradius 54.472 -0 0
rwrist 4.26617 0 0
rhand -8.86013 -18.3961 0.313783
rfingers 7.12502 -0 0
rthumb 17.0449 -47.1529 0.430655
106
root 7.24306 16.8649 -26.9781 -0.752791 7.67132 -2.50677
lfemur -19.5324 8.96235 -14.5654
ltibia 36.1375 -0 0
lfoot -15.4568 -4.871 -0.226609
ltoes 28.035 -0 0
rfemur -42.0195 -6.82108 13.3348
rtibia 39.2902 -0 0
rfoot -7.5961 -1.8443 2.18505
rtoes -10.779 0 0
lowerback 6.80081 0.286782 0.28852
upperback 1.89118 0.525731 1.20464
thorax -1.59065 0.218119 1.42556
lowerneck -11.3086 -2.79079 2.06075
upperneck -1.81992 -3.96582 1.17577
head 1.33256 -1.96325 -0.13678
lclavicle -4.23593e-14 1.01429e-14 -4.05953e-31
lhumerus -41.167 -11.9352 92.129
lradius 46.8376 -0 0
lwrist 10.5823 0 0
lhand -0.843429 5.00727 0.187783
lfingers 7.12502 -0 0
lthumb 24.7558 33.1441 0.0924052
rclavicle -4.23593e-14 1.01429e-14 -4.05953e-31
rhumerus -39.219 -0.697299 -70.6437
rradius 54.9478 -0 0
rwrist 4.12641 0 0
rhand -8.19158 -18.2668 0.310766
rfingers 7.12502 -0 0
rthumb 17.6884 -46.9686 0.426514
107
root 7.28486 16.8715 -26.9527 -1.2455 7.84443 -2.37578
lfemur -18.7237 8.8845 -14.7135
ltibia 35.673 -0 0
lfoot -15.299 -5.26909 -0.223318
ltoes 28.3693 -0 0
rfemur -43.2686 -7.10872 12.9714
rtibia 39.8171 -0 0
rfoot -6.70249 -1.15884 2.15296
rtoes -10.835 0 0
lowerback 7.23755 0.151811 0.147337
upperback 2.05403 0.338481 1.22988
thorax -1.66436 0.125516 1.5393
lowerneck -11.3462 -2.76031 2.00831
upperneck -1.67065 -3.92282 1.16349
head 1.38868 -1.93994 -0.132762
lclavicle -4.38078e-14 1.00653e-14 -4.00069e-31
lhumerus -41.0985 -12.0841 92.1487
lradius 46.93 -0 0
lwrist 10.6407 0 0
lhand -0.398135 5.12423 0.185055
lfingers 7.12502 -0 0
lthumb 25.1825 33.2042 0.0910634
rclavicle -4.38078e-14 1.00653e-14 -4.00069e-31
rhumerus -39.3297 -0.857883 -69.8213
rradius 55.4236 -0 0
rwrist 3.98664 0 0
rhand -7.52304 -18.1376 0.30624
rfingers 7.12502 -0 0
rthumb 18.3318 -46.7843 0.420304
108
root 7.32666 16.878 -26.9273 -1.73802 8.01865 -2.24623
lfemur -17.9149 8.80871 -14.8626
ltibia 35.2084 -0 0
lfoot -15.1412 -5.66717 -0.218931
ltoes 28.7036 -0 0
rfemur -44.5167 -7.40416 12.6143
rtibia 40.344 -0 0
rfoot -5.80936 -0.473979 2.1102
rtoes -10.8911 0 0
lowerback 7.67463 0.0179201 0.0051307
upperback 2.2168 0.151159 1.25458
thorax -1.73825 0.0330589 1.65316
lowerneck -11.3837 -2.72987 1.95585
upperneck -1.5214 -3.87978 1.15132
head 1.4448 -1.91663 -0.128722
lclavicle -4.52562e-14 9.98773e-15 -3.92225e-31
lhumerus -41.0299 -12.233 92.1683
lradius 47.0224 -0 0
lwrist 10.6992 0 0
lhand 0.0471514 5.24116 0.181419
lfingers 7.12502 -0 0
lthumb 25.6093 33.2642 0.0892745
rclavicle -4.52562e-14 9.98773e-15 -3.92225e-31
rhumerus -39.4427 -1.01686 -68.9985
rradius 55.8995 -0 0
rwrist 3.84688 0 0
rhand -6.85451 -18.0084 0.300207
rfingers 7.12502 -0 0
rthumb 18.9751 -46.6001 0.412025
109
root 7.36846 16.8845 -26.9019 -2.23035 8.19397 -2.11815
lfemur -17.1062 8.73501 -15.0127
ltibia 34.7438 -0 0
lfoot -14.9834 -6.06523 -0.213448
ltoes 29.0378 -0 0
rfemur -45.7637 -7.70723 12.2634
rtibia 40.8709 -0 0
rfoot -4.91682 0.210109 2.05678
rtoes -10.9471 0 0
lowerback 8.11204 -0.114881 -0.138093
upperback 2.37949 -0.0362316 1.27876
thorax -1.81233 -0.0592509 1.76713
lowerneck -11.4213 -2.69945 1.90337
upperneck -1.37216 -3.83671 1.13926
head 1.50092 -1.89333 -0.124659
lclavicle -4.67047e-14 9.91015e-15 -3.82419e-31
lhumerus -40.9613 -12.382 92.1877
lradius 47.1148 -0 0
lwrist 10.7576 0 0
lhand 0.49243 5.35806 0.176874
lfingers 7.12502 -0 0
lthumb 26.0361 33.3242 0.0870385
rclavicle -4.67047e-14 9.91015e-15 -3.82419e-31
rhumerus -39.5581 -1.1742 -68.1754
rradius 56.3753 -0 0
rwrist 3.70711 0 0
rhand -6.18599 -17.8793 0.292668
rfingers 7.12502 -0 0
rthumb 19.6185 -46.416 0.401679
110
root 7.41025 16.891 -26.8765 -2.72251 8.37037 -1.99153
lfemur -16.2973 8.66342 -15.1639
ltibia 34.2793 -0 0
lfoot -14.8257 -6.46328 -0.206869
ltoes 29.3721 -0 0
rfemur -47.0098 -8.01781 11.9191
rtibia 41.3978 -0 0
rfoot -4.02502 0.893257 1.99272
rtoes -11.0031 0 0
lowerback 8.54978 -0.246586 -0.282328
upperback 2.5421 -0.22369 1.3024
thorax -1.88659 -0.151413 1.88123
lowerneck -11.4589 -2.66908 1.85088
upperneck -1.22294 -3.79361 1.12732
head 1.55705 -1.87003 -0.120573
lclavicle -4.81531e-14 9.83258e-15 -3.70653e-31
lhumerus -40.8928 -12.531 92.207
lradius 47.2071 -0 0
lwrist 10.8161 0 0
lhand 0.937699 5.47493 0.171421
lfingers 7.12502 -0 0
lthumb 26.4628 33.3842 0.0843556
rclavicle -4.81531e-14 9.83258e-15 -3.70653e-31
rhumerus -39.6756 -1.32986 -67.3519
rradius 56.8511 -0 0
rwrist 3.56735 0 0
rhand -5.5175 -17.7503 0.283622
rfingers 7.12502 -0 0
rthumb 20.2618 -46.2321 0.389266
111
root 7.45205 16.8975 -26.8512 -3.21449 8.54784 -1.8664
lfemur -15.4884 8.59394 -15.316
ltibia 33.8147 -0 0
lfoot -14.668 -6.8613 -0.199194
ltoes 29.7063 -0 0
rfemur -48.2549 -8.33572 11.5814
rtibia 41.9247 -0 0
rfoot -3.13409 1.57529 1.91805
rtoes -11.0591 0 0
lowerback 8.98786 -0.377183 -0.427567
upperback 2.70463 -0.411215 1.32551
thorax -1.96104 -0.243427 1.99544
lowerneck -11.4965 -2.63873 1.79836
upperneck -1.07373 -3.75047 1.11548
head 1.61317 -1.84674 -0.116464
lclavicle -4.96016e-14 9.755e-15 -3.56925e-31
lhumerus -40.8243 -12.68 92.226
lradius 47.2995 -0 0
lwrist 10.8745 0 0
lhand 1.38295 5.59175 0.165059
lfingers 7.12502 -0 0
lthumb 26.8896 33.4442 0.081226
rclavicle -4.96016e-14 9.755e-15 -3.56925e-31
rhumerus -39.7955 -1.48382 -66.528
rradius 57.327 -0 0
rwrist 3.42759 0 0
rhand -4.84902 -17.6215 0.273073
rfingers 7.12502 -0 0
rthumb 20.9051 -46.0483 0.374789
112
root 7.49385 16.904 -26.8258 -3.70632 8.72637 -1.74275
lfemur -14.6795 8.52659 -15.4691
ltibia 33.3502 -0 0
lfoot -14.5104 -7.25931 -0.190424
ltoes 30.0406 -0 0
rfemur -49.4992 -8.66082 11.2505
rtibia 42.4516 -0 0
rfoot -2.24415 2.25606 1.83279
rtoes -11.1151 0 0
lowerback 9.42627 -0.506667 -0.573803
upperback 2.86709 -0.598805 1.34809
thorax -2.03567 -0.335293 2.10978
lowerneck -11.5342 -2.60842 1.74583
upperneck -0.924541 -3.70731 1.10377
head 1.6693 -1.82345 -0.112333
lclavicle -5.10501e-14 9.67743e-15 -3.41236e-31
lhumerus -40.7558 -12.829 92.2449
lradius 47.3919 -0 0
lwrist 10.933 0 0
lhand 1.8282 5.70851 0.15779
lfingers 7.12502 -0 0
lthumb 27.3163 33.5041 0.0776498
rclavicle -5.10501e-14 9.67743e-15 -3.41236e-31
rhumerus -39.9175 -1.63605 -65.7038
rradius 57.8028 -0 0
rwrist 3.28782 0 0
rhand -4.18058 -17.4927 0.26102
rfingers 7.12502 -0 0
rthumb 21.5483 -45.8647 0.35825
